<?xml version="1.0" standalone="no"?>
<!DOCTYPE svg PUBLIC "-//W3C//DTD SVG 20010904//EN"
 "http://www.w3.org/TR/2001/REC-SVG-20010904/DTD/svg10.dtd">
<svg version="1.0" xmlns="http://www.w3.org/2000/svg"
 width="500.000000pt" height="500.000000pt" viewBox="0 0 500.000000 500.000000"
 preserveAspectRatio="xMidYMid meet">
<metadata>
Created by potrace 1.14, written by Peter Selinger 2001-2017
</metadata>
<g transform="translate(0.000000,500.000000) scale(0.100000,-0.100000)"
fill="#000000" stroke="none">
<path d="M2054 3624 c-46 -22 -54 -51 -54 -184 l0 -120 -212 -2 -213 -3 -3
-427 -2 -428 930 0 930 0 -2 428 -3 427 -212 3 -213 2 0 128 c0 116 -2 130
-21 151 -11 12 -32 26 -46 32 -14 5 -203 9 -436 9 -350 0 -417 -3 -443 -16z
m816 -209 l0 -95 -370 0 -370 0 0 95 0 95 370 0 370 0 0 -95z"/>
<path d="M1203 3305 c-17 -7 -40 -26 -50 -41 -17 -27 -18 -74 -18 -925 0 -896
0 -898 21 -926 11 -15 32 -34 45 -40 19 -10 307 -13 1299 -13 1261 0 1275 0
1308 20 64 40 62 1 62 962 0 811 -1 875 -18 908 -27 56 -68 70 -199 70 l-113
0 0 -444 c0 -434 0 -444 -21 -470 -46 -59 6 -56 -1019 -56 -828 0 -945 2 -971
15 -17 9 -27 21 -23 27 4 6 3 8 -4 4 -6 -3 -18 4 -26 16 -14 20 -16 79 -16
465 l0 443 -112 0 c-73 -1 -124 -6 -145 -15z"/>
</g>
</svg>
